<?xml version="1.0" encoding="UTF-8" standalone="no"?>
<svg width="360px" height="360px" viewBox="0 0 360 360" version="1.1" xmlns="http://www.w3.org/2000/svg" xmlns:xlink="http://www.w3.org/1999/xlink" xmlns:sketch="http://www.bohemiancoding.com/sketch/ns">
    <!-- Generator: Sketch 3.2.2 (9983) - http://www.bohemiancoding.com/sketch -->
    <title>tree 2</title>
    <desc>Created with Sketch.</desc>
    <defs></defs>
    <g id="Page-1" stroke="none" stroke-width="1" fill="none" fill-rule="evenodd" sketch:type="MSPage">
        <g id="tree" sketch:type="MSLayerGroup" transform="translate(66.000000, 42.000000)">
            <g id="Group" sketch:type="MSShapeGroup">
                <g>
                    <g id="leaves-lg">
                        <path d="M110.2,40.7 L76.3,96 L56.9,46.6 L110.2,40.7 Z" id="Shape" fill="#FF9C00"></path>
                        <path d="M110.2,40.7 L139.2,94.8 L76.3,96 L110.2,40.7 Z" id="Shape" fill="#FF8600"></path>
                        <path d="M110.2,40.7 L167.1,32.4 L139.2,94.8 L110.2,40.7 Z" id="Shape" fill="#FF6E00"></path>
                        <path d="M92.3,11 L144.8,11 L110.2,40.7 L92.3,11 Z" id="Shape" fill="#FF8600"></path>
                        <path d="M110.2,40.7 L144.8,11 L167.1,32.4 L110.2,40.7 Z" id="Shape" fill="#F36700"></path>
                        <path d="M56.9,46.6 L81.2,16.8 L110.2,40.7 L56.9,46.6 Z" id="Shape" fill="#FF8600"></path>
                        <path d="M92.3,11 L110.2,40.7 L81.2,16.8 L92.3,11 Z" id="Shape" fill="#FF9B00"></path>
                        <path d="M92.3,11 L126.8,1.5 L144.8,11 L92.3,11 Z" id="Shape" fill="#FF9C00"></path>
                        <path d="M92.3,11 L103.2,0.9 L126.8,1.5 L92.3,11 Z" id="Shape" fill="#FFA900"></path>
                        <path d="M167,32.4 L144.6,11 L167,25.8 L167,32.4 Z" id="Shape" fill="#FF6D00"></path>
                        <path d="M81.2,16.8 L34.3,34 L56.9,46.6 L81.2,16.8 Z" id="Shape" fill="#FF9C00"></path>
                        <path d="M35,47 L34.3,34 L56.9,46.6 L35,47 Z" id="Shape" fill="#FF8600"></path>
                        <path d="M81.2,16.8 L34.3,34 L62.2,11 L81.2,16.8 Z" id="Shape" fill="#FFA700"></path>
                        <path d="M34.3,34 L40,16.8 L62.2,11 L34.3,34 Z" id="Shape" fill="#FF9D00"></path>
                        <path d="M206.7,90.7 L139.2,94.8 L167.1,32.4 L206.7,90.7 Z" id="Shape" fill="#F36700"></path>
                        <path d="M206.7,90.7 L167.1,32.4 L202.3,56 L206.7,90.7 Z" id="Shape" fill="#FF6E00"></path>
                        <path d="M167.1,32.4 L179.7,27.7 L202.3,56 L167.1,32.4 Z" id="Shape" fill="#F46B00"></path>
                        <path d="M167.1,32.4 L167,25.8 L179.7,27.7 L167.1,32.4 Z" id="Shape" fill="#FF9A00"></path>
                        <path d="M179.7,27.7 L197,37 L202.3,56 L179.7,27.7 Z" id="Shape" fill="#FF8600"></path>
                        <path d="M35,47 L56.9,46.6 L18,80.8 L35,47 Z" id="Shape" fill="#FF9C00"></path>
                        <path d="M18,80.8 L56.9,46.6 L76.3,96 L18,80.8 Z" id="Shape" fill="#FFA700"></path>
                        <path d="M9.1,64.3 L35,47 L18,80.8 L9.1,64.3 Z" id="Shape" fill="#FF8600"></path>
                        <path d="M206.7,90.7 L202.3,56 L218.8,85.5 L206.7,90.7 Z" id="Shape" fill="#FF8600"></path>
                        <path d="M10.7,106.8 L18,80.8 L76.3,96 L10.7,106.8 Z" id="Shape" fill="#FF9C00"></path>
                        <path d="M10.7,106.8 L9.1,64.3 L18,80.8 L10.7,106.8 Z" id="Shape" fill="#FFA800"></path>
                        <path d="M10.7,106.8 L0.9,88.1 L9.1,64.3 L10.7,106.8 Z" id="Shape" fill="#FF9D00"></path>
                        <path d="M139.2,94.8 L66.8,187.5 L76.3,96 L139.2,94.8 Z" id="Shape" fill="#FF6E00"></path>
                        <path d="M31,141.8 L66.8,187.5 L76.3,96 L31,141.8 Z" id="Shape" fill="#FF8F00"></path>
                        <path d="M31,141.8 L10.7,106.8 L76.3,96 L31,141.8 Z" id="Shape" fill="#FF8600"></path>
                        <path d="M139.2,94.8 L66.8,187.5 L126.8,176.5 L139.2,94.8 Z" id="Shape" fill="#DD5600"></path>
                        <path d="M126.8,176.5 L173,198 L139.2,94.8 L126.8,176.5 Z" id="Shape" fill="#FF6F00"></path>
                        <path d="M173,198 L206.7,90.7 L139.2,94.8 L173,198 Z" id="Shape" fill="#DD5600"></path>
                        <path d="M202.3,148.5 L173,198 L206.7,90.7 L202.3,148.5 Z" id="Shape" fill="#B54200"></path>
                        <path d="M13.5,135.2 L10.7,106.8 L31,141.8 L13.5,135.2 Z" id="Shape" fill="#FF9D00"></path>
                        <path d="M18,160 L13.5,135.2 L31,141.8 L18,160 Z" id="Shape" fill="#FF8F00"></path>
                        <path d="M18,160 L9.1,147.6 L13.5,135.2 L18,160 Z" id="Shape" fill="#FF6E00"></path>
                        <path d="M66.8,187.5 L18,160 L31,141.8 L66.8,187.5 Z" id="Shape" fill="#FF8600"></path>
                        <path d="M66.8,187.5 L37.4,180.7 L18,160 L66.8,187.5 Z" id="Shape" fill="#FF7200"></path>
                        <path d="M218.8,106.8 L206.7,90.7 L202.3,148.5 L218.8,106.8 Z" id="Shape" fill="#DD5600"></path>
                        <path d="M219,85.5 L206.7,90.7 L219,106.8 L219,85.5 Z" id="Shape" fill="#FD6D00"></path>
                        <path d="M37.4,180.7 L20.8,173.8 L18,160 L37.4,180.7 Z" id="Shape" fill="#FF8800"></path>
                        <path d="M66.8,187.5 L43.5,190 L37.4,180.7 L66.8,187.5 Z" id="Shape" fill="#FF8900"></path>
                        <path d="M112,199.7 L89.4,201.7 L66.8,187.5 L112,199.7 Z" id="Shape" fill="#FF7100"></path>
                        <path d="M66.8,187.5 L107.8,186.2 L112,199.7 L66.8,187.5 Z" id="Shape" fill="#DD5600"></path>
                        <path d="M107.8,186.2 L66.8,187.5 L126.8,176.5 L107.8,186.2 Z" id="Shape" fill="#B44000"></path>
                        <path d="M202.3,148.5 L218.8,106.8 L225.3,141.1 L202.3,148.5 Z" id="Shape" fill="#F36700"></path>
                        <path d="M225.3,141.1 L218.8,106.8 L228.8,118.9 L225.3,141.1 Z" id="Shape" fill="#FC7000"></path>
                        <path d="M202.3,148.5 L225.3,141.1 L216.7,149 L202.3,148.5 Z" id="Shape" fill="#D85000"></path>
                        <path d="M204.2,174.3 L216.7,149 L202.3,148.5 L204.2,174.3 Z" id="Shape" fill="#F46600"></path>
                        <path d="M204.2,174.3 L216.7,149 L211.8,170.2 L204.2,174.3 Z" id="Shape" fill="#FC7200"></path>
                        <path d="M202.3,148.5 L204.2,174.3 L173,198 L202.3,148.5 Z" id="Shape" fill="#DC5500"></path>
                        <path d="M173,198 L204.2,174.3 L187,198 L173,198 Z" id="Shape" fill="#CB511E"></path>
                        <path d="M204.2,174.3 L199.6,189.9 L187,198 L204.2,174.3 Z" id="Shape" fill="#E96400"></path>
                        <path d="M187,198 L173,198 L164.7,206.8 L187,198 Z" id="Shape" fill="#FF6D00"></path>
                        <path d="M173,198 L164.7,206.8 L155.5,199.7 L173,198 Z" id="Shape" fill="#BB4B1B"></path>
                        <path d="M155.5,199.7 L126.8,176.5 L173,198 L155.5,199.7 Z" id="Shape" fill="#DD5600"></path>
                        <path d="M155.5,199.7 L121.1,183.6 L126.8,176.5 L155.5,199.7 Z" id="Shape" fill="#FF6F00"></path>
                        <path d="M121.1,183.6 L107.8,186.2 L126.8,176.5 L121.1,183.6 Z" id="Shape" fill="#DB5400"></path>
                        <path d="M122.6,192.9 L112,199.7 L107.8,186.2 L122.6,192.9 Z" id="Shape" fill="#B64000"></path>
                        <path d="M121.1,183.6 L122.6,192.9 L107.8,186.2 L121.1,183.6 Z" id="Shape" fill="#FF6D00"></path>
                        <path d="M121.1,183.6 L145.9,201.7 L122.6,192.9 L121.1,183.6 Z" id="Shape" fill="#DF5400"></path>
                        <path d="M121.1,183.6 L155.5,199.7 L145.9,201.7 L121.1,183.6 Z" id="Shape" fill="#B73F00"></path>
                        <path d="M155.5,199.7 L164.7,206.8 L145.9,201.7 L155.5,199.7 Z" id="Shape" fill="#DB5700"></path>
                        <path d="M145.9,201.7 L139.2,204.4 L122.6,192.9 L145.9,201.7 Z" id="Shape" fill="#FD7000"></path>
                        <path d="M146,201.7 L152.2,210.4 L139.2,204.4 L146,201.7 Z" id="Shape" fill="#E15C00"></path>
                        <path d="M164.7,206.8 L152.2,210.4 L145.9,201.7 L164.7,206.8 Z" id="Shape" fill="#FC6C00"></path>
                    </g>
                    <g id="leaves-sm" transform="translate(53.000000, 201.000000)">
                        <path d="M24.7,2.2 L0.7,18 L26.7,18 L24.7,2.2 Z" id="Shape" fill="#FFA700"></path>
                        <path d="M24.7,2.2 L9.3,7.3 L0.7,18 L24.7,2.2 Z" id="Shape" fill="#FFA100"></path>
                        <path d="M13.7,0.7 L24.7,2.2 L9.3,7.3 L13.7,0.7 Z" id="Shape" fill="#FF8300"></path>
                        <path d="M26.7,18 L48.2,12.7 L24.7,2.2 L26.7,18 Z" id="Shape" fill="#FF8500"></path>
                        <path d="M26.7,18 L48.2,12.7 L42.2,34.1 L26.7,18 Z" id="Shape" fill="#FF6E00"></path>
                        <path d="M7.8,33.6 L0.7,18 L26.7,18 L7.8,33.6 Z" id="Shape" fill="#FF8F00"></path>
                        <path d="M7.8,33.6 L0.2,30 L0.7,18 L7.8,33.6 Z" id="Shape" fill="#FF8300"></path>
                        <path d="M7.8,33.6 L39.8,36.8 L26.7,18 L7.8,33.6 Z" id="Shape" fill="#DD5600"></path>
                        <path d="M39.8,36.8 L28.1,40.9 L7.8,33.6 L39.8,36.8 Z" id="Shape" fill="#B74600"></path>
                        <path d="M42.2,34.1 L50.8,28.1 L48.2,12.7 L42.2,34.1 Z" id="Shape" fill="#DD5600"></path>
                        <path d="M39.8,36.8 L26.7,18 L42.2,34.1 L39.8,36.8 Z" id="Shape" fill="#B14800"></path>
                    </g>
                    <g id="trunk" transform="translate(92.000000, 192.000000)">
                        <path d="M37,83 L23.2,83 L34.8,68.3 L37,83 Z" id="Shape" fill="#63331D"></path>
                        <path d="M23.2,83 L14.3,83 L15.8,72 L23.2,83 Z" id="Shape" fill="#804120"></path>
                        <path d="M23.2,83 L15.8,72 L34.8,68.3 L23.2,83 Z" id="Shape" fill="#874628"></path>
                        <path d="M34.8,68.3 L20,43.1 L15.8,72 L34.8,68.3 Z" id="Shape" fill="#7A3F21"></path>
                        <path d="M34.3,49.9 L20,43.1 L37,30 L34.3,49.9 Z" id="Shape" fill="#61311B"></path>
                        <path d="M20,43.1 L14.3,52.5 L15.8,72 L20,43.1 Z" id="Shape" fill="#C26333"></path>
                        <path d="M15.8,72 L9.2,58.8 L14.3,52.5 L15.8,72 Z" id="Shape" fill="#773C14"></path>
                        <path d="M0.8,45.8 L14.3,52.5 L9.2,58.8 L0.8,45.8 Z" id="Shape" fill="#B8632D"></path>
                        <path d="M14.3,52.5 L0.8,45.8 L3.2,43.1 L14.3,52.5 Z" id="Shape" fill="#814926"></path>
                        <path d="M30.6,24.3 L37,30 L20,43.1 L30.6,24.3 Z" id="Shape" fill="#7B3E21"></path>
                        <path d="M37,30 L30.6,24.3 L44.4,10.4 L37,30 Z" id="Shape" fill="#80411E"></path>
                        <path d="M47.2,12.4 L37,30 L44.4,10.4 L47.2,12.4 Z" id="Shape" fill="#4A2216"></path>
                        <path d="M30.6,0.9 L20,43.1 L20,7.7 L30.6,0.9 Z" id="Shape" fill="#793E20"></path>
                        <path d="M30.6,24.3 L20,43.1 L30.4,1.6 L30.6,24.3 Z" id="Shape" fill="#61331C"></path>
                        <path d="M34.3,49.9 L34.8,68.3 L20,43.1 L34.3,49.9 Z" id="Shape" fill="#452411"></path>
                    </g>
                </g>
            </g>
        </g>
        <circle id="border" stroke="#FFFFFF" stroke-width="10" sketch:type="MSShapeGroup" cx="180" cy="180" r="175"></circle>
    </g>
</svg>